<?xml version="1.0" encoding="utf-8"?>
<!-- Generator: Adobe Illustrator 16.0.0, SVG Export Plug-In . SVG Version: 6.00 Build 0)  -->
<!DOCTYPE svg PUBLIC "-//W3C//DTD SVG 1.1//EN" "http://www.w3.org/Graphics/SVG/1.1/DTD/svg11.dtd">
<svg version="1.1" id="Layer_1" xmlns="http://www.w3.org/2000/svg" xmlns:xlink="http://www.w3.org/1999/xlink" x="0px" y="0px"
	 width="960px" height="380px" viewBox="0 0 960 380" enable-background="new 0 0 960 380" xml:space="preserve">
<g>
	<g>
		<path fill="#EF3A3F" d="M121.238,88.978C8.094,88.958,3.695,177.037,4.275,199.902c0,0-5.542,102.974,114.195,102.974
			c102.883,0,107.951-64.608,107.951-64.608l-47.337,0.092c0,0-9.217,35.595-60.422,34.642
			c-65.821-1.225-68.378-64.994-68.378-64.994h182.353C232.64,208,246.473,88.999,121.238,88.978z M51.804,176.773
			c0,0,3.238-57.668,68.318-57.685c64.842-0.019,64.842,57.685,64.842,57.685H51.804z"/>
	</g>
</g>
<g>
	<g>
		<path fill="#0067B3" d="M359.292,88.978c-56.89-0.317-81.363,33.691-81.363,33.691V8.884h-45.609l0.771,240.474
			c0,0-0.276,28.015-1.998,46.523h44.295l1.9-27.012c0,0,20.666,34.004,81.046,34.004c60.39,0,108.068-37.19,109.341-106.154
			C468.939,127.75,416.184,89.292,359.292,88.978z M348.84,272.128c-71.845,0.9-70.678-76.201-70.678-76.201
			s-2.621-74.214,70.563-76.124c73.172-1.908,70.792,77.707,70.792,77.707S420.688,271.217,348.84,272.128z"/>
	</g>
</g>
<g>
	<g>
		<path fill="#FBAD18" d="M678.392,248.408c0.116-31.105,1.023-58.881,0-78.473c-1.194-22.716,0.955-77.543-97.258-81.597
			c0,0-94.152-8.582-103.93,61.499h48.151c0,0,3.74-32.105,52.608-31.182c46.239,0.873,54.669,23.554,54.423,51.444
			c0,0-39.631,0.112-52.857,0.179c-23.834,0.118-107.252,2.761-115.038,53.568c-9.263,60.419,44.659,79.262,86.848,79.022
			c42.193-0.239,66.265-12.871,84.146-35.515l1.911,28.123l41.953-0.238C679.35,295.239,678.269,279.516,678.392,248.408z
			 M559.206,273.789c0,0-45.712,0.056-48.395-36.467c-2.855-38.976,70.322-36.632,70.322-36.632l51.703-0.051
			C632.841,200.64,641.211,274.86,559.206,273.789z"/>
	</g>
</g>
<polygon fill="#6AB945" points="653.448,96.603 706.358,96.603 783.751,250.91 861.306,96.603 909.14,96.603 769.129,371.683 
	717.967,371.683 758.485,295.239 "/>
<g>
	<path d="M927.047,107.616v-5.695h-1.76V99.79h1.76v-2.974h3.181v2.974h3.733v2.131h-3.733v5.308c0,0.964,0.628,1.354,1.706,1.354
		c0.71,0,1.352-0.125,1.972-0.37v2.03c-0.784,0.35-1.65,0.557-2.862,0.557C928.699,110.796,927.047,109.997,927.047,107.616z"/>
	<path d="M937.202,99.785h3.184v1.639c0.897-0.96,2.105-1.866,4.242-1.866c1.989,0,3.412,0.759,4.149,1.907
		c1.105-1.148,2.579-1.907,4.688-1.907c3.017,0,4.866,1.497,4.866,4.141v6.908h-3.181v-6.146c0-1.723-1.031-2.646-2.812-2.646
		c-1.747,0-2.979,0.947-2.979,2.688v6.108h-3.184v-6.168c0-1.681-1.058-2.624-2.812-2.624c-1.761,0-2.979,1.029-2.979,2.687v6.108
		h-3.184V99.785L937.202,99.785z"/>
</g>
</svg>
